# xmcd CD database file
#
# Track frame offsets:
#	150
#	13602
#	27645
#	42880
#	54360
#	73042
#	85710
#	97395
#	108513
#	134565
#	146658
#	160663
#	179905
#
# Disc length: 2691 seconds
#
# Revision: 0
# Processed by: cddbd v1.5.2PL0 Copyright (c) Steve Scherf et al.
# Submitted via: CDex 1.51
#
DISCID=bd0a810d
DTITLE=Matt Corcoran - Angry Young Man
DYEAR=1900
DGENRE=Blues
TTITLE0=Gunna Wanna (tie me up)
TTITLE1=Elevator
TTITLE2=Angry Young Man
TTITLE3=House of the Rising Sun
TTITLE4=Why Judge Me?
TTITLE5=Learning to Live
TTITLE6=Lil' Blue Collar Blue
TTITLE7=Hard Rock Blues
TTITLE8=Shoulda Coulda Woulda
TTITLE9=Love me no more
TTITLE10=Tanya
TTITLE11=New Tattoo
TTITLE12=I wanna Go Home
EXTD=
EXTT0=
EXTT1=
EXTT2=
EXTT3=
EXTT4=
EXTT5=
EXTT6=
EXTT7=
EXTT8=
EXTT9=
EXTT10=
EXTT11=
EXTT12=
PLAYORDER=
